<mxfile host="app.diagrams.net" modified="2023-10-16T19:19:42.753Z" agent="Mozilla/5.0 (Windows NT 10.0; Win64; x64) AppleWebKit/537.36 (KHTML, like Gecko) Chrome/117.0.0.0 Safari/537.36" etag="IRm_IFB0DsYiWbZQ68y3" version="22.0.4" type="google">
  <diagram name="Page-1" id="WDtrQBJDh0I3v0ZAjNaj">
    <mxGraphModel grid="1" page="1" gridSize="10" guides="1" tooltips="1" connect="1" arrows="1" fold="1" pageScale="1" pageWidth="1100" pageHeight="850" math="0" shadow="0">
      <root>
        <mxCell id="0" />
        <mxCell id="1" parent="0" />
        <mxCell id="fC3eDhHKZJ2QJcVhHaS8-4" value="&lt;div style=&quot;text-align: left;&quot;&gt;&lt;u style=&quot;font-size: 18px; background-color: initial;&quot;&gt;Defaults:&lt;/u&gt;&lt;/div&gt;&lt;font style=&quot;font-size: 18px;&quot;&gt;&lt;div style=&quot;text-align: left;&quot;&gt;&lt;span style=&quot;background-color: initial;&quot;&gt;incVectReg &amp;lt;= &#39;0&#39;;&lt;/span&gt;&lt;/div&gt;&lt;div style=&quot;text-align: left;&quot;&gt;&lt;span style=&quot;background-color: initial;&quot;&gt;ldVectReg &amp;lt;= &#39;0&#39;;&lt;/span&gt;&lt;/div&gt;&lt;div style=&quot;text-align: left;&quot;&gt;&lt;span style=&quot;background-color: initial;&quot;&gt;incFaceCnt &amp;lt;= &#39;0&#39;;&lt;/span&gt;&lt;/div&gt;&lt;div style=&quot;text-align: left;&quot;&gt;&lt;span style=&quot;background-color: initial;&quot;&gt;ldFaceCnt &amp;lt;= &#39;0&#39;&#39;&lt;/span&gt;&lt;/div&gt;&lt;div style=&quot;text-align: left;&quot;&gt;&lt;span style=&quot;background-color: initial;&quot;&gt;load(8:0) &amp;lt;= &quot;000000000&quot;;&lt;/span&gt;&lt;/div&gt;&lt;div style=&quot;text-align: left;&quot;&gt;&lt;span style=&quot;background-color: initial;&quot;&gt;ready &amp;lt;= &#39;0&#39;;&lt;/span&gt;&lt;/div&gt;&lt;div style=&quot;text-align: left;&quot;&gt;&lt;span style=&quot;background-color: initial;&quot;&gt;readynext &amp;lt;= &#39;0&#39;;&lt;/span&gt;&lt;/div&gt;&lt;div style=&quot;text-align: left;&quot;&gt;&lt;br&gt;&lt;/div&gt;&lt;div style=&quot;text-align: left;&quot;&gt;&lt;u&gt;Variables:&lt;/u&gt;&lt;/div&gt;&lt;div style=&quot;text-align: left;&quot;&gt;int i, j, k;&lt;/div&gt;&lt;div style=&quot;text-align: left;&quot;&gt;&lt;br&gt;&lt;/div&gt;&lt;/font&gt;" style="text;html=1;align=right;verticalAlign=middle;resizable=0;points=[];autosize=1;strokeColor=none;fillColor=none;" vertex="1" parent="1">
          <mxGeometry x="10" width="230" height="270" as="geometry" />
        </mxCell>
        <mxCell id="T817rFtHN-tM9wAowEf_-36" value="Psuedocode:&lt;br style=&quot;font-size: 18px;&quot;&gt;for(i=0; i&amp;lt;num_faces; i++){&lt;br&gt;&lt;span style=&quot;&quot;&gt;&lt;span style=&quot;white-space: pre;&quot;&gt;&amp;nbsp;&amp;nbsp;&amp;nbsp;&amp;nbsp;&lt;/span&gt;&lt;/span&gt;for(j=0;j&amp;lt;3;j++){&lt;br&gt;&lt;span style=&quot;&quot;&gt;&lt;span style=&quot;white-space: pre;&quot;&gt;&amp;nbsp;&amp;nbsp;&amp;nbsp;&amp;nbsp;&lt;/span&gt;&lt;/span&gt;&lt;span style=&quot;&quot;&gt;&lt;span style=&quot;white-space: pre;&quot;&gt;&amp;nbsp;&amp;nbsp;&amp;nbsp;&amp;nbsp;&lt;/span&gt;&lt;/span&gt;for(k=0;k&amp;lt;3;k++){&lt;br&gt;&lt;span style=&quot;&quot;&gt;&lt;span style=&quot;white-space: pre;&quot;&gt;&amp;nbsp;&amp;nbsp;&amp;nbsp;&amp;nbsp;&lt;/span&gt;&lt;/span&gt;&lt;span style=&quot;&quot;&gt;&lt;span style=&quot;white-space: pre;&quot;&gt;&amp;nbsp;&amp;nbsp;&amp;nbsp;&amp;nbsp;&lt;/span&gt;&lt;span style=&quot;&quot;&gt;&lt;span style=&quot;white-space: pre;&quot;&gt;&amp;nbsp;&amp;nbsp;&amp;nbsp;&amp;nbsp;data&lt;/span&gt;&lt;/span&gt;&lt;/span&gt;Vect[j+k] = dataFace[i-1]*3+j+k]&lt;br&gt;&lt;span style=&quot;&quot;&gt;&lt;span style=&quot;white-space: pre;&quot;&gt;&amp;nbsp;&amp;nbsp;&amp;nbsp;&amp;nbsp;&lt;/span&gt;&lt;/span&gt;&lt;span style=&quot;&quot;&gt;&lt;span style=&quot;white-space: pre;&quot;&gt;&amp;nbsp;&amp;nbsp;&amp;nbsp;&amp;nbsp;&lt;/span&gt;&lt;/span&gt;}&lt;br&gt;&lt;span style=&quot;&quot;&gt;&lt;span style=&quot;white-space: pre;&quot;&gt;&amp;nbsp;&amp;nbsp;&amp;nbsp;&amp;nbsp;&lt;/span&gt;&lt;/span&gt;}&lt;br&gt;}" style="text;html=1;align=left;verticalAlign=middle;resizable=0;points=[];autosize=1;strokeColor=none;fillColor=none;fontSize=18;" vertex="1" parent="1">
          <mxGeometry x="10" y="254" width="370" height="190" as="geometry" />
        </mxCell>
        <mxCell id="-2OWZafM5wyb8YdDswX8-18" style="edgeStyle=orthogonalEdgeStyle;rounded=0;orthogonalLoop=1;jettySize=auto;html=1;exitX=1;exitY=0.5;exitDx=0;exitDy=0;entryX=0;entryY=0.5;entryDx=0;entryDy=0;" edge="1" parent="1" target="-2OWZafM5wyb8YdDswX8-24">
          <mxGeometry relative="1" as="geometry">
            <mxPoint x="441" y="110" as="sourcePoint" />
          </mxGeometry>
        </mxCell>
        <mxCell id="-2OWZafM5wyb8YdDswX8-19" value="" style="group" connectable="0" vertex="1" parent="1">
          <mxGeometry x="671" y="70" width="170" height="130" as="geometry" />
        </mxCell>
        <mxCell id="-2OWZafM5wyb8YdDswX8-20" value="waitDataValid" style="ellipse;whiteSpace=wrap;html=1;" vertex="1" parent="-2OWZafM5wyb8YdDswX8-19">
          <mxGeometry x="25" width="120" height="80" as="geometry" />
        </mxCell>
        <mxCell id="-2OWZafM5wyb8YdDswX8-21" value="&lt;span style=&quot;color: rgb(0, 0, 0); font-family: Helvetica; font-style: normal; font-variant-ligatures: normal; font-variant-caps: normal; font-weight: 400; letter-spacing: normal; orphans: 2; text-indent: 0px; text-transform: none; widows: 2; word-spacing: 0px; -webkit-text-stroke-width: 0px; background-color: rgb(251, 251, 251); text-decoration-thickness: initial; text-decoration-style: initial; text-decoration-color: initial; float: none; display: inline !important;&quot;&gt;&lt;font style=&quot;font-size: 14px;&quot;&gt;load(0) &amp;lt;= &#39;1&#39;;&lt;br&gt;&lt;/font&gt;&lt;/span&gt;" style="text;whiteSpace=wrap;html=1;align=center;" vertex="1" parent="-2OWZafM5wyb8YdDswX8-19">
          <mxGeometry y="80" width="170" height="50" as="geometry" />
        </mxCell>
        <mxCell id="-2OWZafM5wyb8YdDswX8-22" value="" style="group" connectable="0" vertex="1" parent="1">
          <mxGeometry x="482" y="70" width="170" height="130" as="geometry" />
        </mxCell>
        <mxCell id="-2OWZafM5wyb8YdDswX8-23" style="edgeStyle=orthogonalEdgeStyle;rounded=0;orthogonalLoop=1;jettySize=auto;html=1;exitX=1;exitY=0.5;exitDx=0;exitDy=0;" edge="1" parent="-2OWZafM5wyb8YdDswX8-22" source="-2OWZafM5wyb8YdDswX8-24">
          <mxGeometry relative="1" as="geometry">
            <mxPoint x="208" y="40" as="targetPoint" />
          </mxGeometry>
        </mxCell>
        <mxCell id="-2OWZafM5wyb8YdDswX8-24" value="updateVecAddr" style="ellipse;whiteSpace=wrap;html=1;" vertex="1" parent="-2OWZafM5wyb8YdDswX8-22">
          <mxGeometry x="25" width="120" height="80" as="geometry" />
        </mxCell>
        <mxCell id="-2OWZafM5wyb8YdDswX8-25" value="&lt;span style=&quot;color: rgb(0, 0, 0); font-family: Helvetica; font-style: normal; font-variant-ligatures: normal; font-variant-caps: normal; font-weight: 400; letter-spacing: normal; orphans: 2; text-indent: 0px; text-transform: none; widows: 2; word-spacing: 0px; -webkit-text-stroke-width: 0px; background-color: rgb(251, 251, 251); text-decoration-thickness: initial; text-decoration-style: initial; text-decoration-color: initial; float: none; display: inline !important;&quot;&gt;&lt;font style=&quot;font-size: 14px;&quot;&gt;ldVectReg &amp;lt;= &#39;1&#39;;&lt;br&gt;&lt;br&gt;&lt;/font&gt;&lt;/span&gt;" style="text;whiteSpace=wrap;html=1;align=center;" vertex="1" parent="-2OWZafM5wyb8YdDswX8-22">
          <mxGeometry y="80" width="170" height="50" as="geometry" />
        </mxCell>
        <mxCell id="-2OWZafM5wyb8YdDswX8-35" value="clr" style="text;html=1;align=center;verticalAlign=middle;resizable=0;points=[];autosize=1;strokeColor=none;fillColor=none;" vertex="1" parent="-2OWZafM5wyb8YdDswX8-22">
          <mxGeometry x="-22" y="16" width="40" height="30" as="geometry" />
        </mxCell>
        <mxCell id="-2OWZafM5wyb8YdDswX8-26" value="" style="endArrow=classic;html=1;rounded=0;entryX=0;entryY=0;entryDx=0;entryDy=0;" edge="1" parent="1">
          <mxGeometry width="50" height="50" relative="1" as="geometry">
            <mxPoint x="280" y="30" as="sourcePoint" />
            <mxPoint x="338.57359312880726" y="81.71572875253821" as="targetPoint" />
          </mxGeometry>
        </mxCell>
        <mxCell id="-2OWZafM5wyb8YdDswX8-27" value="clr" style="text;html=1;align=center;verticalAlign=middle;resizable=0;points=[];autosize=1;strokeColor=none;fillColor=none;" vertex="1" parent="1">
          <mxGeometry x="290" y="30" width="40" height="30" as="geometry" />
        </mxCell>
        <mxCell id="-2OWZafM5wyb8YdDswX8-28" style="edgeStyle=orthogonalEdgeStyle;rounded=0;orthogonalLoop=1;jettySize=auto;html=1;exitX=1;exitY=0.5;exitDx=0;exitDy=0;entryX=0;entryY=0.5;entryDx=0;entryDy=0;" edge="1" parent="1" source="-2OWZafM5wyb8YdDswX8-20">
          <mxGeometry relative="1" as="geometry">
            <mxPoint x="865" y="110" as="targetPoint" />
          </mxGeometry>
        </mxCell>
        <mxCell id="-2OWZafM5wyb8YdDswX8-32" value="" style="group" connectable="0" vertex="1" parent="1">
          <mxGeometry x="300" y="70" width="170" height="130" as="geometry" />
        </mxCell>
        <mxCell id="-2OWZafM5wyb8YdDswX8-33" value="Start" style="ellipse;whiteSpace=wrap;html=1;" vertex="1" parent="-2OWZafM5wyb8YdDswX8-32">
          <mxGeometry x="25" width="120" height="80" as="geometry" />
        </mxCell>
        <mxCell id="-2OWZafM5wyb8YdDswX8-34" value="&lt;span style=&quot;color: rgb(0, 0, 0); font-family: Helvetica; font-style: normal; font-variant-ligatures: normal; font-variant-caps: normal; font-weight: 400; letter-spacing: normal; orphans: 2; text-indent: 0px; text-transform: none; widows: 2; word-spacing: 0px; -webkit-text-stroke-width: 0px; background-color: rgb(251, 251, 251); text-decoration-thickness: initial; text-decoration-style: initial; text-decoration-color: initial; float: none; display: inline !important;&quot;&gt;&lt;font style=&quot;font-size: 14px;&quot;&gt;ldFaceReg &amp;lt;= &#39;1&#39;;&lt;br&gt;i := 0;&lt;br&gt;j := 0;&lt;br&gt;k := 0&lt;br&gt;&lt;/font&gt;&lt;/span&gt;" style="text;whiteSpace=wrap;html=1;align=center;" vertex="1" parent="-2OWZafM5wyb8YdDswX8-32">
          <mxGeometry y="80" width="170" height="50" as="geometry" />
        </mxCell>
      </root>
    </mxGraphModel>
  </diagram>
</mxfile>
